<svg width="34" height="29" viewBox="0 0 34 29" fill="none" xmlns="http://www.w3.org/2000/svg">
<path fill-rule="evenodd" clip-rule="evenodd" d="M16.9999 0.249512L29.1226 0.592267C31.2646 0.65283 33.0363 2.27892 33.2799 4.40792C33.8191 9.12061 33.8191 13.8794 33.2799 18.5921C33.0363 20.7211 31.2646 22.3472 29.1226 22.4078L19.0832 22.6916V26.0834H25.3332C26.0236 26.0834 26.5832 26.643 26.5832 27.3334C26.5832 28.0237 26.0236 28.5834 25.3332 28.5834H8.66656C7.97621 28.5834 7.41656 28.0237 7.41656 27.3334C7.41656 26.643 7.97621 26.0834 8.66656 26.0834H14.9166V22.6916L4.87716 22.4078C2.73513 22.3472 0.963429 20.7211 0.719837 18.5921C0.180627 13.8794 0.180627 9.12061 0.719837 4.40792C0.963429 2.27892 2.73513 0.65283 4.87716 0.592267L16.9999 0.249512ZM5.33323 16.9167C4.64288 16.9167 4.08323 17.4763 4.08323 18.1667C4.08323 18.857 4.64288 19.4167 5.33323 19.4167H28.6666C29.3569 19.4167 29.9166 18.857 29.9166 18.1667C29.9166 17.4763 29.3569 16.9167 28.6666 16.9167H5.33323Z" fill="#299764"/>
</svg>
